<svg width="25" height="25" viewBox="0 0 25 25" fill="none" xmlns="http://www.w3.org/2000/svg">
<path fill-rule="evenodd" clip-rule="evenodd" d="M20.6361 22.1986C20.6361 22.1986 20.1785 22.6562 19.5312 22.6562H5.46875C5.46875 22.6562 4.82154 22.6562 4.3639 22.1986C4.3639 22.1986 3.90625 21.741 3.90625 21.0938V3.90625C3.90625 3.90625 3.90625 3.25904 4.3639 2.8014C4.3639 2.8014 4.82154 2.34375 5.46875 2.34375H14.8438C15.051 2.34375 15.2497 2.42606 15.3962 2.57257L20.8649 8.04132C21.0114 8.18784 21.0938 8.38655 21.0938 8.59375V21.0938C21.0938 21.0938 21.0938 21.741 20.6361 22.1986ZM19.5312 21.0938V8.91735L14.5201 3.90625H5.46875V21.0938H19.5312Z" fill="#1C1C1C"/>
<path d="M14.8438 9.375H20.3125C20.744 9.375 21.0938 9.02522 21.0938 8.59375C21.0938 8.16228 20.744 7.8125 20.3125 7.8125H15.625V3.125C15.625 2.69353 15.2752 2.34375 14.8438 2.34375C14.4123 2.34375 14.0625 2.69353 14.0625 3.125V8.59375C14.0625 9.02522 14.4123 9.375 14.8438 9.375Z" fill="#1C1C1C"/>
<path d="M14.6815 15.0051C14.8281 15.1517 15.0272 15.2344 15.2344 15.2344C15.4416 15.2344 15.6403 15.1521 15.7868 15.0056C15.9333 14.859 16.0156 14.6603 16.0156 14.4531C16.0156 14.2459 15.9333 14.0472 15.7868 13.9007L13.0524 11.1663C12.9059 11.0198 12.7072 10.9375 12.5 10.9375C12.2928 10.9375 12.0941 11.0198 11.9476 11.1663L9.2132 13.9007C9.06669 14.0472 8.98438 14.2459 8.98438 14.4531C8.98438 14.4656 8.98468 14.4782 8.98528 14.4907C8.99461 14.6847 9.07586 14.8682 9.2132 15.0056C9.35971 15.1521 9.55842 15.2344 9.76562 15.2344C9.97283 15.2344 10.1715 15.1521 10.3181 15.0056L12.5 12.8236L14.6815 15.0051Z" fill="#1C1C1C"/>
<path d="M13.2812 17.9688V11.7188C13.2812 11.2873 12.9315 10.9375 12.5 10.9375C12.0685 10.9375 11.7188 11.2873 11.7188 11.7188V17.9688C11.7188 18.4002 12.0685 18.75 12.5 18.75C12.9315 18.75 13.2812 18.4002 13.2812 17.9688Z" fill="#1C1C1C"/>
</svg>
