<svg width="22" height="22" viewBox="0 0 22 22" fill="none" xmlns="http://www.w3.org/2000/svg">
<g clip-path="url(#clip0_1_486)">
<path d="M15.5834 19.25V17.4167C15.5834 16.4442 15.197 15.5116 14.5094 14.8239C13.8218 14.1363 12.8891 13.75 11.9167 13.75H4.58335C3.61089 13.75 2.67826 14.1363 1.99063 14.8239C1.303 15.5116 0.916687 16.4442 0.916687 17.4167V19.25" stroke="white" stroke-width="2" stroke-linecap="round" stroke-linejoin="round"/>
<path d="M8.24998 10.0833C10.275 10.0833 11.9166 8.44171 11.9166 6.41667C11.9166 4.39162 10.275 2.75 8.24998 2.75C6.22494 2.75 4.58331 4.39162 4.58331 6.41667C4.58331 8.44171 6.22494 10.0833 8.24998 10.0833Z" stroke="white" stroke-width="2" stroke-linecap="round" stroke-linejoin="round"/>
<path d="M21.0833 19.25V17.4167C21.0827 16.6043 20.8123 15.815 20.3146 15.173C19.8168 14.5309 19.1199 14.0723 18.3333 13.8692" stroke="white" stroke-width="2" stroke-linecap="round" stroke-linejoin="round"/>
<path d="M14.6667 2.86917C15.4554 3.07111 16.1545 3.52981 16.6537 4.17296C17.1529 4.8161 17.4239 5.6071 17.4239 6.42125C17.4239 7.23541 17.1529 8.02641 16.6537 8.66955C16.1545 9.31269 15.4554 9.7714 14.6667 9.97334" stroke="white" stroke-width="2" stroke-linecap="round" stroke-linejoin="round"/>
</g>
<defs>
<clipPath id="clip0_1_486">
<rect width="22" height="22" fill="white"/>
</clipPath>
</defs>
</svg>
