<svg width="28" height="34" viewBox="0 0 28 34" fill="none" xmlns="http://www.w3.org/2000/svg">
<path fill-rule="evenodd" clip-rule="evenodd" d="M26.7678 32.5178C26.7678 32.5178 26.0355 33.25 25 33.25H2.5C2.5 33.25 1.46447 33.25 0.732234 32.5178C0.732234 32.5178 0 31.7855 0 30.75V3.25C0 3.25 0 2.21447 0.732233 1.48223C0.732233 1.48223 1.46447 0.75 2.5 0.75H17.5C17.8315 0.75 18.1495 0.881696 18.3839 1.11612L27.1339 9.86612C27.3683 10.1005 27.5 10.4185 27.5 10.75V30.75C27.5 30.75 27.5 31.7855 26.7678 32.5178ZM25 30.75V11.2678L16.9822 3.25H2.5V30.75H25Z" fill="#1C1C1C"/>
<path d="M17.5 12H26.25C26.9404 12 27.5 11.4404 27.5 10.75C27.5 10.0596 26.9404 9.5 26.25 9.5H18.75V2C18.75 1.30964 18.1904 0.75 17.5 0.75C16.8096 0.75 16.25 1.30964 16.25 2V10.75C16.25 11.4404 16.8096 12 17.5 12Z" fill="#1C1C1C"/>
<path d="M17.2405 21.0082C17.4749 21.2427 17.7935 21.375 18.125 21.375C18.4565 21.375 18.7745 21.2433 19.0089 21.0089C19.2433 20.7745 19.375 20.4565 19.375 20.125C19.375 19.7935 19.2433 19.4755 19.0089 19.2411L14.6339 14.8661C14.3995 14.6317 14.0815 14.5 13.75 14.5C13.4185 14.5 13.1005 14.6317 12.8661 14.8661L8.49112 19.2411C8.2567 19.4755 8.125 19.7935 8.125 20.125C8.125 20.145 8.12548 20.165 8.12644 20.185C8.14137 20.4954 8.27138 20.7891 8.49112 21.0089C8.72554 21.2433 9.04348 21.375 9.375 21.375C9.70652 21.375 10.0245 21.2433 10.2589 21.0089L13.75 17.5178L17.2405 21.0082Z" fill="#1C1C1C"/>
<path d="M15 25.75V15.75C15 15.0596 14.4404 14.5 13.75 14.5C13.0596 14.5 12.5 15.0596 12.5 15.75V25.75C12.5 26.4404 13.0596 27 13.75 27C14.4404 27 15 26.4404 15 25.75Z" fill="#1C1C1C"/>
</svg>
